<?xml version="1.0" standalone="no"?>
<!DOCTYPE svg PUBLIC "-//W3C//DTD SVG 20010904//EN"
 "http://www.w3.org/TR/2001/REC-SVG-20010904/DTD/svg10.dtd">
<svg version="1.0" xmlns="http://www.w3.org/2000/svg"
 width="225.000000pt" height="225.000000pt" viewBox="0 0 225.000000 225.000000"
 preserveAspectRatio="xMidYMid meet">
<metadata>
Created by potrace 1.11, written by Peter Selinger 2001-2013
</metadata>
<g transform="translate(0.000000,225.000000) scale(0.100000,-0.100000)"
fill="#000000" stroke="none">
<path d="M945 2234 c-232 -35 -450 -149 -620 -323 -172 -176 -274 -378 -309
-615 -20 -132 -20 -213 -1 -339 36 -239 144 -453 316 -624 189 -189 417 -297
686 -325 590 -61 1129 359 1218 949 19 123 19 212 1 333 -94 621 -666 1040
-1291 944z m385 -89 c101 -22 188 -53 277 -100 374 -198 592 -597 553 -1013
-13 -143 -40 -235 -105 -367 -94 -190 -227 -333 -407 -437 -171 -99 -321 -140
-523 -141 -108 0 -148 4 -239 27 -310 76 -557 274 -697 561 -243 498 -47 1102
443 1365 215 115 468 153 698 105z"/>
<path d="M941 2055 c-295 -64 -534 -247 -662 -506 -64 -130 -90 -234 -96 -384
-6 -148 9 -243 59 -382 67 -186 237 -380 421 -483 l57 -32 0 44 c0 36 13 313
22 482 l3 48 -43 17 c-123 48 -198 163 -222 339 -20 145 22 278 117 377 67 70
131 100 213 99 80 0 132 -25 201 -95 142 -144 167 -370 64 -567 -13 -26 -33
-56 -42 -68 -30 -34 -102 -82 -134 -89 -28 -6 -29 -9 -29 -63 0 -53 14 -326
26 -508 l6 -81 82 -13 c104 -16 276 -8 371 17 l70 18 11 185 c7 102 12 231 13
287 l1 101 -27 7 c-39 8 -120 69 -144 108 -19 30 -20 43 -16 222 3 105 13 255
22 335 25 224 21 210 55 210 l30 0 0 -320 0 -320 30 0 30 0 0 320 0 320 30 0
30 0 0 -320 0 -320 30 0 30 0 0 320 0 320 35 0 35 0 0 -320 0 -320 30 0 30 0
0 320 c0 312 0 320 20 320 24 0 24 -3 45 -190 24 -223 37 -448 29 -509 -6 -49
-12 -61 -59 -107 -33 -33 -67 -57 -93 -65 l-42 -12 0 -51 c0 -67 21 -430 25
-434 8 -8 134 86 190 143 133 132 231 322 264 509 16 87 13 255 -5 344 -50
249 -186 453 -402 603 -90 63 -234 123 -343 144 -99 18 -281 18 -368 0z"/>
<path d="M587 1387 c-25 -38 -47 -126 -47 -186 0 -98 51 -199 127 -254 49 -35
67 -29 35 11 -33 40 -57 89 -82 165 -19 57 -22 80 -17 155 3 48 9 97 13 110 8
29 -9 29 -29 -1z"/>
</g>
</svg>
